<svg width="1458" height="265" viewBox="0 0 1458 265" fill="none" xmlns="http://www.w3.org/2000/svg">
<path d="M1448.89 152.808C1448.89 197.265 1448.89 220.336 1448.89 264.793C1447.65 264.793 1450.13 265 1448.89 265C822.646 265 630.642 265 4.39521 265C5.22112 265 3.5693 265 4.39521 265C3.98225 265 4.80817 264.793 4.39521 264.793C4.39521 264.38 4.39521 264.38 4.39521 264.173C4.39521 169.676 4.39521 96.5647 4.39521 2.27449C4.39521 1.65416 4.18873 1.03385 4.39521 0.413516V0.206726C4.39521 0.206726 4.18873 0.206777 4.39521 0C-10.6777 0 19.0551 0 4.39521 0C4.39521 66.1686 4.39521 132.337 4.39521 198.712C2.94987 198.712 5.84055 198.712 4.39521 198.712C4.39521 197.679 4.39521 196.645 4.39521 195.611C4.39521 162.32 4.39521 129.029 4.39521 95.5309C4.39521 94.497 4.18873 93.6699 4.39521 92.636C-7.37402 92.636 16.1644 92.636 4.39521 92.636C4.39521 127.995 4.39521 163.354 4.39521 198.712C2.94987 198.712 5.84055 198.712 4.39521 198.712C4.39521 189.821 4.39521 180.93 4.39521 172.038C4.39521 163.147 4.39521 154.255 4.39521 145.364C4.39521 136.473 4.39521 127.788 4.39521 118.897C4.39521 110.005 4.39521 101.321 4.39521 92.4293C4.39521 83.5379 4.39521 74.6464 4.39521 65.755C4.39521 57.0704 4.18873 48.1789 4.39521 39.4943C7.49238 38.874 2.74339 39.0808 4.39521 39.7011C4.39521 41.3553 4.39521 43.0095 4.39521 44.6637C4.39521 46.318 4.39521 48.1789 4.39521 49.8332C4.39521 51.4874 3.77578 53.1416 4.39521 55.0026C-7.16754 55.0026 15.7515 55.0026 4.39521 55.0026C4.39521 67.2024 4.39521 78.9887 4.39521 90.9818C4.39521 102.975 4.39521 114.968 4.39521 126.961C4.39521 138.954 4.39521 150.74 4.39521 162.733C4.39521 174.726 4.39521 186.719 4.39521 198.506C2.94987 198.506 5.84055 198.506 4.39521 198.506C4.39521 158.184 4.39521 118.07 4.39521 77.9548C7.07942 77.5413 2.74339 77.5413 4.39521 78.1616C4.39521 81.47 4.39521 84.7785 4.39521 88.2937C8.11181 88.5004 0.678611 88.5005 4.39521 88.7072C4.39521 93.4631 4.39521 97.8054 4.39521 102.355C4.39521 106.904 4.18873 111.246 4.39521 116.002C5.84055 115.795 3.15634 115.795 4.39521 115.795C4.80817 115.795 4.39521 115.381 4.39521 115.175C4.80817 114.348 3.5693 114.141 4.39521 114.141C5.63408 113.934 3.36282 113.934 4.39521 113.934C15.545 113.934 20.0671 113.934 31.2169 113.934C31.8364 113.934 32.4558 113.934 33.0752 114.141C33.2817 116.002 33.6946 117.863 33.9011 119.931C36.1724 119.931 38.2371 119.931 40.3019 119.931C45.8768 119.931 51.2452 119.93 56.8201 120.137C57.646 120.137 58.6784 120.551 59.5043 120.758C60.5367 120.964 61.5691 121.585 62.808 121.585C65.2857 121.792 67.9699 121.585 70.4477 121.791C71.6865 121.791 72.7189 121.998 73.9578 122.205C73.9578 123.032 73.9578 123.446 73.9578 124.066C73.9578 147.845 73.7513 171.625 73.7513 195.404C73.7513 196.024 73.7513 196.645 73.7513 197.265C73.9578 198.712 74.1643 199.126 75.8161 199.126C76.642 199.126 77.6744 199.126 78.5003 198.919C78.5003 197.058 78.5003 195.404 78.5003 193.75C78.5003 191.062 78.2938 188.374 78.2938 185.686C78.2938 183.204 79.1197 180.93 80.5651 178.862C82.2169 176.381 83.6622 173.899 85.3141 171.625C85.5205 171.211 85.727 170.798 85.9335 170.384C84.6946 169.557 83.6622 168.73 82.4234 168.11C78.7068 165.421 77.055 161.906 77.6744 157.357C78.2938 150.947 83.0428 146.398 89.4436 146.191C96.2574 145.984 101.006 149.706 102.039 156.323C102.865 160.872 101.832 164.801 97.7027 167.696C96.6703 168.316 95.8444 169.143 95.0185 169.971C94.6055 170.384 94.1926 171.004 93.7796 171.418C95.225 173.692 96.6703 175.76 97.9092 177.828C98.5286 178.655 98.9416 179.275 99.974 179.689C101.213 180.103 101.626 180.93 101.626 182.17C101.626 187.133 101.626 192.096 101.626 196.852C101.626 197.472 101.626 198.299 101.626 198.919C104.929 199.333 109.678 198.919 111.33 198.299C111.33 166.869 111.33 135.232 111.33 103.802C111.743 103.595 111.743 103.388 111.95 103.388C115.666 101.734 119.383 100.287 123.099 98.6326C123.925 98.219 124.751 98.4257 125.577 98.8393C128.055 100.08 130.739 101.114 133.217 102.561C136.52 104.215 136.52 104.422 136.52 108.144C136.52 136.473 136.52 164.801 136.52 193.129C136.52 194.577 136.52 195.818 136.727 197.265C136.933 199.126 137.346 199.333 139.618 198.919C139.618 198.092 139.618 197.472 139.618 196.645C139.824 174.313 140.237 151.981 140.444 129.856C140.444 129.442 140.444 129.235 140.444 128.822C140.444 127.788 141.063 127.168 141.889 126.961C144.78 126.341 147.464 126.754 150.148 127.995C150.148 130.063 148.496 131.717 149.322 133.991C150.355 131.717 152.006 130.476 153.658 129.236C154.484 128.822 155.103 128.202 155.723 127.374C156.549 126.134 157.581 125.927 159.027 125.72C159.646 125.72 160.266 125.514 160.678 125.1C161.298 124.686 161.917 123.859 162.537 123.239C163.156 122.619 163.569 121.998 163.363 120.964C162.95 120.551 162.33 120.137 161.917 119.931C161.917 118.69 162.124 117.863 163.363 117.656C166.666 116.829 169.763 117.036 172.861 118.07C173.274 119.31 173.48 120.344 172.448 121.378C171.828 121.792 171.828 122.825 171.415 123.653C171.828 123.859 172.241 123.859 172.448 123.859C176.164 124.066 179.055 125.927 181.533 128.615C182.565 129.649 183.804 130.269 184.836 131.096C185.456 131.51 186.075 131.717 186.695 132.13C186.695 134.198 186.695 136.473 186.695 138.54C187.314 136.059 187.314 133.785 186.901 131.303C186.901 130.89 186.695 130.476 186.488 130.269C185.456 129.649 185.662 128.615 185.662 127.581C189.379 126.341 192.889 125.927 196.606 127.995C196.399 128.822 196.193 129.442 195.986 130.063C195.78 130.476 195.78 131.096 195.78 131.51C195.986 134.612 196.606 137.507 196.606 140.608C196.812 149.706 196.812 159.011 196.812 168.11C196.812 177.621 196.606 187.133 196.606 196.852C196.606 197.679 196.606 198.506 196.606 199.126C199.703 199.126 202.8 199.126 205.691 199.126C205.691 192.509 205.691 185.892 205.691 179.276C205.071 179.069 204.452 178.862 203.832 178.655C203.006 178.242 201.974 178.035 201.148 177.414C199.909 176.587 199.909 175.967 201.148 175.14C201.767 174.726 202.387 174.313 203.006 174.106C204.245 173.486 205.691 173.072 206.929 172.452C208.375 171.831 208.581 171.625 208.375 169.971C208.375 169.143 208.168 168.316 207.755 167.489C207.342 166.455 207.549 165.628 208.375 165.008C208.994 164.388 210.027 164.388 211.059 165.008C211.885 165.421 211.885 166.249 211.472 166.869C211.265 167.489 211.059 168.109 210.852 168.73C210.233 171.831 210.646 172.245 213.537 172.865C213.95 172.865 214.363 173.072 214.776 173.072C215.395 173.279 216.014 173.486 216.634 173.899C217.666 174.52 218.286 175.554 218.079 176.794C218.079 178.035 217.047 178.242 216.014 178.655C215.189 178.862 214.156 179.069 213.33 179.276C213.33 185.892 213.33 192.509 213.33 199.126C216.84 199.126 220.35 199.126 223.861 199.126C223.861 198.092 224.067 197.265 224.067 196.645C224.274 188.994 224.48 181.343 224.48 173.899C224.48 172.245 224.48 170.798 223.654 169.143C222.828 167.903 223.448 166.869 224.893 166.248C225.512 166.042 226.132 165.835 226.751 165.835C227.99 165.835 229.436 165.835 230.881 165.835C232.739 165.835 232.946 166.249 232.739 168.11C232.326 171.211 231.913 174.313 231.913 177.414C231.913 184.238 232.326 191.062 232.533 197.885C232.533 198.299 232.739 198.712 232.739 199.333C235.01 199.333 237.282 199.333 239.553 199.333C239.553 198.299 239.553 197.265 239.553 196.438C239.759 192.716 239.966 189.201 240.379 185.479C240.585 183.825 241.411 182.791 242.857 182.17C244.508 181.55 245.747 180.309 246.78 178.862C246.986 178.448 247.399 178.242 247.606 177.828C248.431 178.862 249.257 180.516 251.116 179.482C251.322 174.106 251.322 168.937 251.529 163.56C256.071 163.147 320.492 163.354 322.35 163.974C322.35 164.594 322.35 165.421 322.35 166.042C322.35 169.971 322.35 173.899 322.35 178.035C322.35 179.482 322.97 179.896 324.209 179.276C324.828 178.862 325.448 179.069 325.861 179.276C326.687 179.689 327.512 180.309 328.545 180.723C332.468 183.204 334.326 186.719 334.12 191.269C333.913 193.336 333.913 195.404 333.707 197.472C333.707 198.092 333.707 198.919 333.707 199.54C335.978 199.54 337.836 199.54 339.901 199.54C339.901 198.506 340.108 197.472 340.108 196.645C340.108 193.957 340.314 191.062 340.314 188.374C340.521 183.411 340.521 178.448 340.727 173.486C340.727 172.245 340.727 170.798 339.901 169.557C339.488 169.143 339.695 168.316 339.488 167.696C342.792 166.662 345.889 166.662 348.986 167.489C346.921 178.242 348.16 188.787 348.573 199.54C351.67 199.54 354.355 199.54 357.658 199.54C357.245 198.713 357.039 197.885 356.626 197.265C354.767 194.577 354.767 191.889 356.419 189.201C356.626 188.994 356.832 188.58 356.832 188.374C357.452 186.513 358.071 184.652 358.484 182.791C358.897 180.516 358.897 178.448 358.897 176.174C358.897 170.177 358.691 164.181 358.691 158.184C358.691 155.91 358.278 154.049 357.039 151.981C356.419 150.947 356.213 149.293 356.213 147.845C356.213 147.225 357.658 146.605 358.278 145.984C358.278 145.984 358.484 145.778 358.691 145.778C359.93 145.157 360.136 144.33 360.136 142.883C359.929 141.435 360.136 139.988 360.136 138.54C359.929 126.134 359.516 113.934 360.136 101.527C360.136 99.8732 360.342 98.4257 360.549 96.7715C360.962 97.1851 361.168 97.3919 361.168 97.8054C361.375 101.734 361.788 105.663 361.788 109.592C361.788 120.344 361.581 131.096 361.375 141.642C361.375 143.71 361.581 145.157 363.646 146.191C365.711 147.225 366.124 150.74 364.678 152.395C363.233 154.049 362.82 155.91 362.82 157.977C362.82 163.767 362.614 169.557 362.82 175.347C362.82 180.309 363.233 185.272 365.504 189.821C366.537 191.889 366.33 193.75 365.091 195.818C364.472 196.852 364.059 198.299 363.233 199.746C367.363 199.54 371.079 199.333 375.002 199.333C375.209 181.964 375.415 164.801 375.415 147.639C382.023 144.537 388.836 143.71 396.063 143.917C395.857 162.32 395.857 180.723 395.65 199.333C396.889 198.506 396.476 197.472 396.682 196.645C396.889 180.93 396.889 165.215 397.095 149.5C397.095 147.018 397.095 144.744 397.302 142.262C397.302 141.022 396.889 139.988 395.65 139.574C395.444 139.368 395.237 139.368 395.031 139.161C393.792 138.54 393.379 137.507 393.172 136.266C393.172 134.198 393.172 132.13 392.966 130.269C392.966 129.029 393.172 128.408 394.411 127.995C396.063 127.374 397.715 126.341 399.16 125.514C402.464 123.653 404.116 120.964 404.529 117.242C404.942 114.141 405.355 111.246 405.974 107.938C407.006 110.832 407.832 113.52 407.419 116.415C407.006 119.517 408.039 121.585 410.516 123.032C411.136 123.446 411.755 124.066 412.581 124.48C414.646 125.72 416.711 127.168 418.982 128.408C419.808 128.822 420.221 129.442 420.221 130.476C420.221 132.337 420.014 134.405 420.014 136.266C420.014 137.3 419.601 138.127 418.776 138.747C418.363 139.161 417.95 139.368 417.33 139.574C416.504 139.988 416.298 140.608 416.091 141.229C415.885 143.296 416.711 144.123 418.776 144.123C424.97 144.123 430.958 145.778 437.152 147.639C437.152 165.008 437.152 182.377 437.152 199.54C441.282 200.367 443.553 199.333 445.411 196.024C445.618 195.611 445.824 194.99 446.237 194.577C446.857 193.543 447.682 192.923 448.921 192.923C449.954 192.716 450.986 192.716 452.018 192.716C453.877 192.509 455.322 191.889 456.561 190.441C457.18 189.614 457.8 188.787 458.213 187.753C458.832 186.513 459.452 185.065 459.865 183.618C460.897 179.896 461.723 176.174 462.549 172.452C459.658 170.591 456.767 169.971 453.67 169.971C454.29 173.693 456.148 176.174 459.245 177.828C459.245 178.655 459.245 179.482 459.452 180.309C457.18 180.103 455.322 179.482 454.29 177.621C453.051 175.14 451.812 172.659 450.78 170.177C449.954 168.316 450.573 167.489 452.638 167.489C454.083 167.489 455.529 167.489 456.974 167.489C458.006 167.489 458.626 167.076 458.626 166.042C458.832 162.94 459.039 159.838 459.039 156.737C459.039 155.496 459.039 154.049 458.006 152.601C456.974 154.876 459.039 157.357 456.974 159.011C455.735 159.011 454.703 158.598 454.083 157.357C452.844 154.876 451.605 152.601 450.367 150.12C449.747 148.879 449.128 147.639 448.508 146.398C449.954 145.778 451.193 145.157 452.431 144.744C457.593 142.676 462.549 143.503 466.678 147.018C467.711 147.845 468.743 148.879 469.776 149.706C470.188 150.12 470.808 150.327 471.221 150.327C473.905 150.12 475.557 148.466 476.176 145.778C475.144 144.33 473.492 143.71 472.047 143.09C470.188 142.056 468.124 141.229 466.266 139.988C465.646 139.574 465.027 139.161 464.614 138.127C467.091 138.954 469.156 139.574 471.427 140.401C473.286 141.022 475.144 141.435 477.002 141.022C478.448 140.815 478.654 140.401 478.861 138.954C479.067 137.093 479.274 135.025 480.099 133.371C480.306 132.957 480.719 132.337 481.132 132.13C482.784 131.51 484.435 131.096 486.087 130.476C485.468 132.544 484.642 134.612 484.022 136.679C483.403 139.161 483.816 140.195 486.087 141.229C487.533 141.849 488.978 142.262 490.423 142.676C492.695 143.296 493.52 143.917 493.727 146.398C493.727 146.812 493.933 147.432 493.933 148.052C495.172 148.052 496.205 147.845 497.237 148.052C498.27 148.259 499.302 148.673 500.747 148.879C499.921 150.327 498.889 151.154 497.444 151.154C495.998 151.154 494.553 150.947 493.108 150.533C491.043 149.706 489.184 148.466 487.12 147.432C486.5 147.018 485.674 146.605 485.055 146.191C484.229 147.845 483.816 149.706 483.61 151.361C483.61 153.222 484.229 154.876 486.087 155.91C487.12 156.53 488.152 157.15 489.391 157.357C495.379 158.805 501.16 160.872 507.354 160.666C509.213 160.666 510.452 161.493 511.071 163.147C511.69 165.008 512.31 166.869 512.516 168.73C512.929 173.279 513.136 177.828 513.342 182.377C513.342 182.791 513.342 183.204 513.342 183.825C511.484 183.204 510.865 181.964 510.452 180.516C509.213 176.174 507.561 171.831 507.148 167.282C506.942 165.215 505.703 164.181 503.638 163.354C503.431 164.801 503.018 165.835 503.018 167.076C502.606 169.971 501.986 172.865 500.128 175.14C499.921 175.554 499.715 175.967 499.508 176.381C499.095 177.414 499.508 178.035 500.128 178.655C501.573 179.689 503.018 180.309 504.877 180.103C506.322 182.791 506.735 185.686 507.561 188.374C508.387 191.062 508.8 193.957 509.419 196.645C509.626 196.851 509.832 196.852 509.832 196.852C512.516 196.852 514.788 197.265 516.646 199.333C516.852 199.54 517.265 199.746 517.678 199.746C518.711 199.746 519.743 199.746 521.189 199.746C521.189 198.712 521.189 197.885 521.189 197.058C521.395 183.618 521.395 170.177 521.601 156.737C521.601 155.91 521.601 155.083 521.808 154.049C522.84 154.049 523.46 154.049 524.286 154.049C530.48 154.049 536.881 154.049 543.075 154.049C544.933 154.049 545.14 153.842 545.553 152.188C545.553 151.774 545.759 151.361 545.759 150.947C546.172 148.259 546.792 147.639 549.27 147.639C557.942 147.639 566.82 147.639 575.492 147.639C576.112 147.639 576.731 147.639 577.35 147.845C577.557 163.354 577.763 178.655 577.763 194.163C579.828 192.509 580.861 190.028 582.719 188.374C582.925 190.855 582.925 193.336 582.925 195.818C582.925 198.299 582.925 200.574 582.925 203.055C584.371 203.055 585.61 203.055 586.849 203.055C586.849 202.435 587.055 202.021 587.055 201.607C587.055 199.54 587.055 197.265 587.261 195.197C587.468 180.309 588.5 165.628 586.229 150.947C585.816 147.639 585.197 144.537 583.751 141.642C582.925 140.195 582.512 138.54 582.099 136.886C581.48 134.198 582.512 131.924 584.99 130.683C586.229 130.063 587.674 129.442 589.12 129.236C590.978 128.822 592.836 128.615 594.901 128.202C594.901 127.581 595.108 126.961 595.108 126.341C595.314 123.652 595.521 120.758 595.521 118.07C595.727 112.9 597.585 108.765 601.095 105.043C604.606 101.321 608.735 98.6325 613.484 96.7715C616.581 95.5309 618.646 93.6698 618.646 90.1546C618.852 90.3614 619.059 90.3614 619.059 90.5682C619.472 93.0495 621.124 94.2902 623.189 95.3241C624.634 95.9444 625.873 96.7716 627.318 97.5987C629.589 99.0461 632.067 100.7 634.338 102.355C638.468 105.87 640.946 110.419 641.565 115.588C641.978 119.103 641.978 122.619 642.184 126.134C642.184 126.961 642.184 127.788 642.184 128.615C643.01 128.822 643.836 129.029 644.456 129.236C646.933 129.856 649.411 130.476 651.889 131.303C655.812 132.751 656.225 133.785 654.78 137.713C653.954 139.988 652.715 142.056 651.889 144.33C651.269 145.778 650.65 147.018 650.65 148.466C650.031 156.323 648.998 164.181 649.205 172.038C649.411 179.896 649.205 187.753 649.411 195.611C649.411 198.092 649.618 200.573 650.237 202.848C653.128 203.675 653.954 203.055 654.78 200.367C654.986 199.746 655.193 198.919 655.193 198.299C660.355 198.299 665.31 198.092 670.472 198.092C671.298 193.957 671.917 189.821 671.917 185.892C671.917 182.584 670.472 179.896 667.994 177.621C664.071 174.106 662.213 173.692 657.464 175.967C656.225 176.381 655.193 177.001 653.954 177.621C653.954 176.794 653.747 176.381 653.747 175.967C653.541 169.557 653.541 163.147 654.16 156.53C654.573 151.774 655.606 147.018 657.877 142.676C658.703 141.022 659.322 139.161 659.942 137.3C660.768 134.198 660.354 131.303 657.877 129.029C657.67 128.822 657.67 128.615 657.464 128.202C660.148 127.375 662.626 126.754 664.897 125.927C669.853 124.273 674.602 122.412 679.557 120.551C682.241 119.517 684.306 117.656 685.338 114.968C685.958 113.107 687.403 112.073 689.261 111.866C694.217 111.039 699.172 110.832 704.128 111.866C706.399 112.28 708.464 113.314 709.703 115.588C710.322 116.622 711.148 117.449 711.767 118.276C712.593 119.517 713.626 120.344 715.071 120.964C716.517 121.378 717.962 121.791 719.407 122.205C721.885 122.825 724.363 123.032 726.84 123.653C741.5 127.581 754.921 134.405 767.31 143.09C775.982 149.293 784.448 155.91 791.055 164.594C791.674 165.215 792.087 166.042 792.913 166.455C794.152 167.489 795.597 168.11 797.043 169.143C798.075 169.764 799.107 170.591 800.14 171.418C800.966 172.245 801.792 173.279 802.618 174.106C802.824 174.313 803.237 174.726 803.857 175.14C804.476 165.215 804.889 155.703 805.508 146.191C815.419 144.951 824.917 143.71 834.622 142.676C834.622 141.435 834.828 140.401 834.828 139.368C835.035 130.89 835.241 122.412 835.448 113.934C835.448 111.246 836.067 110.419 838.751 109.592C840.403 109.178 842.055 108.971 843.707 108.558C846.391 107.937 849.075 107.524 851.759 106.904C853.411 106.49 853.411 106.283 853.411 104.629C853.411 101.941 853.618 99.2529 853.618 96.5648C853.618 95.7377 853.824 94.9106 853.824 94.0835C855.476 93.8767 857.128 93.4632 858.78 93.4632C865.593 93.2564 872.201 92.8428 879.014 92.636C893.468 92.636 907.921 92.8428 922.375 93.6699C923.614 93.6699 924.646 94.2902 925.265 95.3241C926.091 96.9783 927.537 97.5986 929.395 97.8054C931.253 98.0122 933.112 98.4257 934.97 98.8393C939.512 99.8732 940.132 100.907 939.925 105.456C939.719 110.419 939.719 115.588 939.512 120.551C939.512 121.171 939.719 121.998 939.719 122.619C940.132 122.825 940.338 122.825 940.545 122.825C944.261 123.239 947.978 123.653 951.488 124.066C956.237 124.686 960.986 125.72 965.528 126.341C966.354 126.547 966.974 126.754 967.8 126.961C967.593 129.235 967.387 131.51 967.18 133.991C965.735 133.164 964.496 132.337 963.051 132.957C963.051 133.371 962.844 133.785 962.844 133.991C962.431 139.368 961.812 144.537 961.812 149.913C961.812 164.181 962.018 178.448 962.225 192.716C962.225 193.13 962.431 193.75 962.431 194.37C964.083 194.37 965.735 194.784 967.387 193.957C967.387 183.204 967.387 172.245 967.387 161.493C981.014 163.56 994.435 165.628 1007.03 171.625C1007.03 173.486 1006.41 175.347 1006.82 177.621C1009.3 177.621 1011.57 177.621 1014.26 177.621C1014.26 185.272 1014.26 192.716 1014.26 200.16C1015.5 200.16 1016.53 200.367 1017.56 200.367C1018.59 200.367 1019.01 199.953 1019.42 199.126C1019.83 197.885 1020.25 196.645 1020.86 195.611C1021.69 193.75 1022.31 191.682 1022.31 189.614C1022.31 188.58 1022.52 187.547 1022.52 186.513C1022.72 182.377 1022.93 178.448 1022.31 174.52C1021.9 171.831 1020.66 169.97 1017.77 169.764C1017.35 169.764 1017.15 169.557 1016.74 169.557C1014.46 169.143 1012.81 167.903 1011.78 166.042C1010.95 164.388 1010.13 162.94 1009.51 161.079C1007.03 154.049 1006.62 146.812 1007.03 139.574C1007.03 139.368 1007.24 139.161 1007.24 138.747C1008.48 138.747 1009.71 138.747 1010.95 138.747C1011.57 138.747 1012.19 138.747 1012.81 138.54C1015.5 137.713 1018.18 136.473 1021.07 135.646C1022.31 135.232 1022.93 134.405 1023.14 133.164C1023.34 131.924 1023.96 130.683 1024.37 129.236C1025.82 129.856 1027.27 129.442 1028.3 130.683C1028.5 130.89 1029.12 131.096 1029.54 131.096C1030.57 131.096 1031.6 130.89 1032.63 130.683C1039.45 129.236 1046.26 127.788 1053.08 126.547C1055.55 126.134 1057.41 125.514 1057.82 122.619C1058.03 121.378 1058.86 121.171 1060.1 121.378C1061.54 121.585 1062.57 122.412 1063.4 123.446C1064.43 124.686 1065.46 125.72 1067.12 125.927C1067.53 125.1 1067.94 124.273 1068.35 123.653C1070.01 123.032 1071.04 124.48 1072.28 125.1C1072.69 124.48 1072.9 124.066 1073.31 123.446C1075.17 124.686 1077.03 124.066 1078.89 123.239C1079.3 123.032 1080.12 122.825 1080.33 123.239C1081.36 124.273 1082.4 123.653 1083.43 123.653C1085.08 123.446 1086.52 123.032 1088.18 122.825C1090.24 122.412 1092.51 122.205 1094.58 121.791C1095.4 121.585 1096.44 120.964 1097.06 120.344C1099.53 117.449 1101.8 114.348 1104.28 111.659C1106.35 109.385 1108.41 107.11 1110.68 105.249C1113.37 102.975 1116.26 101.114 1119.15 99.046C1124.1 95.7376 1129.47 93.4631 1135.25 92.4293C1137.32 92.0157 1139.18 91.6021 1141.04 90.7749C1143.1 89.9478 1143.72 88.7072 1143.31 86.4327C1142.89 84.9852 1143.31 83.9514 1144.34 83.1242C1144.54 82.9175 1144.96 82.7107 1145.37 82.7107C1146.61 82.7107 1147.64 84.1581 1147.44 85.3988C1147.44 85.8123 1147.23 86.2259 1147.23 86.6395C1146.82 88.7072 1147.64 90.1546 1149.71 90.7749C1151.15 91.1885 1152.6 91.6021 1154.25 92.0157C1157.97 93.2563 1161.89 94.0835 1165.61 95.5309C1174.9 99.4597 1182.33 106.076 1189.14 113.52C1189.35 113.727 1189.35 113.727 1189.56 113.934C1191.83 117.656 1195.34 120.551 1196.99 124.686C1196.99 124.893 1197.2 124.893 1197.61 125.1C1198.02 124.273 1198.64 123.446 1198.85 122.619C1199.06 121.792 1199.67 121.378 1200.5 121.378C1201.12 121.378 1201.53 121.585 1202.15 121.585C1202.36 122.619 1202.57 123.652 1202.77 124.686C1204.01 123.652 1203.6 121.378 1205.46 121.378C1207.31 122.412 1207.52 124.686 1209.59 125.72C1209.59 124.48 1209.79 123.653 1209.79 122.619C1210.82 122.619 1211.65 122.619 1212.48 122.619C1212.68 123.446 1212.68 124.066 1212.89 125.1C1214.13 124.066 1214.95 123.239 1215.99 122.412C1216.81 123.446 1217.43 124.273 1218.05 125.1C1219.7 124.273 1220.32 122.412 1222.39 123.032C1222.59 123.446 1222.8 123.859 1223.01 124.066C1225.07 124.066 1226.52 122.619 1228.79 123.032C1227.96 125.514 1229.61 126.754 1231.27 128.202C1232.92 129.649 1234.57 131.303 1236.22 132.544C1237.46 133.578 1238.08 134.818 1238.08 136.473C1237.87 143.71 1237.87 150.947 1237.67 158.184C1237.67 161.079 1237.67 163.974 1237.46 166.869C1237.46 167.489 1237.25 168.316 1237.25 169.143C1235.81 168.11 1234.57 167.489 1233.54 166.662C1232.09 165.628 1231.06 165.628 1229.41 166.455C1223.63 169.35 1220.53 174.106 1219.29 180.516C1218.26 185.892 1218.46 191.269 1218.67 196.645C1218.67 197.679 1218.88 198.919 1218.88 199.953C1221.77 200.367 1239.52 200.16 1241.18 199.746C1241.18 195.404 1241.18 190.855 1241.18 186.306C1241.18 181.757 1241.18 177.208 1241.18 172.865C1241.18 168.316 1241.18 163.767 1241.18 159.425C1241.18 154.876 1241.18 150.327 1241.18 145.984C1241.18 141.435 1240.97 137.093 1241.18 132.544C1246.75 132.13 1447.03 131.303 1448.89 131.924C1448.89 132.337 1448.89 132.751 1448.89 133.371C1448.89 138.954 1448.89 144.537 1448.89 150.12C1448.69 160.872 1448.48 171.625 1448.89 182.17C1449.1 187.753 1448.69 193.129 1448.89 198.712C1448.89 199.126 1448.89 199.746 1448.89 200.16C1451.16 200.367 1448.89 200.367 1448.89 198.299C1448.89 197.679 1448.89 197.058 1448.89 196.438C1448.69 188.787 1448.89 180.93 1448.89 173.279C1448.89 166.455 1448.89 159.632 1448.89 152.808C1448.89 151.361 1448.27 149.913 1448.89 148.672C1449.72 146.605 1448.89 144.537 1448.89 142.262C1448.89 140.195 1449.1 138.127 1448.89 136.059C1448.89 132.957 1447.03 130.476 1448.89 128.408C1449.72 127.374 1447.65 127.168 1448.89 127.581C1448.89 128.202 1448.89 128.615 1448.89 129.442C1450.55 128.615 1447.86 128.615 1448.89 126.754C1449.1 126.547 1448.69 126.341 1448.89 126.134C1450.34 125.72 1447.86 124.686 1448.89 123.859C1450.13 122.825 1447.86 122.205 1448.89 121.171C1449.72 120.344 1447.86 119.931 1448.89 118.897C1449.51 118.276 1448.07 118.069 1448.89 117.656C1450.55 116.829 1448.27 115.795 1448.89 113.934C1449.31 112.9 1449.93 112.28 1448.89 111.659C1449.51 110.626 1449.1 109.798 1448.89 108.351C1448.89 107.937 1449.31 107.524 1448.89 106.904C1450.34 105.663 1448.89 104.216 1448.89 102.768C1448.48 102.561 1449.31 102.561 1448.89 102.355V102.148C1449.51 100.7 1451.16 99.0461 1448.89 97.1851C1449.93 95.7377 1449.31 94.2903 1448.89 92.4293C1447.86 92.8428 1449.31 93.0495 1448.89 93.8766C1447.65 95.9444 1449.93 95.9444 1448.89 98.0121C1448.89 98.2189 1449.1 98.219 1448.89 98.219C1447.03 99.4596 1450.75 100.494 1448.89 101.734C1448.69 101.734 1448.89 102.148 1448.89 102.148C1448.69 102.354 1449.31 102.975 1448.89 102.975C1447.03 103.595 1450.34 105.043 1448.89 106.283C1446.62 108.558 1451.78 108.558 1448.89 108.144C1448.69 106.076 1448.69 104.009 1448.89 101.941C1448.89 89.3276 1448.89 76.7142 1448.89 63.894C1448.89 60.5856 1450.13 57.2771 1448.89 54.1755C1448.27 52.3145 1449.51 50.4535 1448.89 48.5926C1448.69 48.179 1449.1 47.5586 1448.89 46.9383C1449.51 46.7315 1448.48 46.7315 1448.89 46.7315C1452.2 46.1112 1448.69 45.0773 1448.89 41.7689C1448.89 41.3553 1448.89 40.9418 1448.89 40.5282C1448.89 36.1859 1448.89 31.8436 1448.89 27.5013C1448.89 22.9522 1451.99 18.6099 1448.89 15.0947C1447.65 13.6472 1449.51 11.993 1448.89 9.92526C1449.93 9.71849 1447.86 9.30496 1448.89 9.30496C1450.75 9.51173 1448.27 8.68461 1448.89 7.0304C1449.51 5.78974 1447.65 5.37615 1448.89 5.37615C1456.33 5.58292 1441.67 5.58294 1448.89 5.58294C1450.13 5.58294 1448.27 5.58297 1448.89 7.23719C1449.1 7.65074 1448.27 8.0643 1448.89 8.27107C1449.72 8.68463 1448.07 8.89139 1448.89 9.09817C1450.13 9.51172 1448.27 10.1321 1448.89 11.1659C1449.93 13.0269 1448.69 15.0947 1448.89 16.9557C1448.69 17.1624 1448.89 17.1624 1448.89 17.1624C1448.69 17.3692 1449.1 17.576 1448.89 17.576C1445.8 18.8167 1448.89 21.0912 1448.89 24.3996C1448.89 29.7758 1448.89 35.152 1448.89 40.5282C1448.89 43.6299 1446.62 46.7315 1448.89 49.2129C1450.55 51.0738 1450.13 53.1416 1448.89 55.2094C1447.45 57.6907 1449.1 60.172 1448.89 62.8601C1448.69 69.0634 1448.89 75.06 1448.89 81.2633C1448.89 98.4257 1448.69 115.588 1448.89 132.751C1448.89 136.886 1448.89 141.022 1448.89 145.364C1448.89 146.398 1447.65 147.225 1448.89 147.639C1451.37 148.466 1447.65 150.327 1448.89 152.601C1449.51 153.842 1447.86 154.049 1448.89 154.049C1448.27 154.049 1449.51 154.049 1448.89 154.049C1419.57 154.049 1478.21 154.049 1448.89 154.049C1449.31 152.395 1448.07 152.601 1448.89 152.808ZM1158.59 198.506C1158.79 191.062 1159 184.031 1159 177.001C1159 174.933 1158.79 172.865 1158.59 170.798C1157.55 163.974 1154.25 158.805 1148.26 155.289C1147.23 154.669 1146.2 154.669 1145.16 155.083C1140 157.357 1136.91 161.493 1135.25 166.662C1134.22 169.97 1133.6 173.279 1133.6 176.587C1133.6 183.618 1133.81 190.855 1134.01 197.885C1134.01 198.092 1134.22 198.299 1134.22 198.506C1142.07 198.506 1150.33 198.506 1158.59 198.506ZM1199.67 198.506C1199.67 198.092 1199.88 197.885 1199.88 197.472C1199.88 190.855 1200.09 184.445 1200.09 177.828C1200.09 170.384 1196.37 164.801 1190.38 160.666C1188.11 159.011 1186.46 159.011 1184.4 160.666C1178.82 165.008 1175.31 170.591 1175.31 177.828C1175.31 183.825 1175.31 190.028 1175.31 196.024C1175.31 196.851 1175.31 197.472 1175.31 198.299C1183.57 198.506 1191.62 198.506 1199.67 198.506ZM1113.37 198.506C1113.37 197.885 1113.57 197.679 1113.57 197.265C1113.57 190.441 1113.57 183.825 1113.57 177.001C1113.57 175.553 1113.37 174.106 1112.95 172.865C1111.51 167.696 1108 164.181 1103.87 161.286C1102.22 160.252 1100.98 160.252 1099.53 161.286C1095.2 163.974 1091.89 167.489 1090.24 172.245C1089.62 173.899 1089.21 175.76 1089.21 177.621C1089 184.031 1089.21 190.441 1089.21 197.058C1089.21 197.472 1089.42 198.092 1089.42 198.506C1097.06 198.506 1105.11 198.506 1113.37 198.506ZM1073.93 198.506C1073.93 198.092 1074.14 197.679 1074.14 197.265C1074.14 192.509 1074.14 187.753 1073.93 182.997C1073.52 175.967 1070.21 170.591 1064.02 167.076C1062.57 166.249 1061.54 166.249 1060.1 167.076C1053.7 171.004 1049.57 176.587 1049.15 184.445C1048.95 188.787 1049.15 193.129 1049.15 197.265C1049.15 197.679 1049.36 198.092 1049.36 198.506C1057.62 198.506 1065.67 198.506 1073.93 198.506ZM611.832 146.398C605.844 145.984 600.063 145.778 594.075 145.364C593.869 147.225 593.869 148.673 593.662 150.327C593.249 153.428 592.423 156.53 592.423 159.425C592.217 172.452 592.217 185.479 592.217 198.299C592.217 201.814 592.423 201.814 595.933 201.401C596.14 201.401 596.14 201.194 596.346 201.194C596.346 200.78 596.553 200.16 596.346 199.746C596.346 195.818 596.14 191.889 596.14 187.96C596.14 183.204 596.14 178.242 596.346 173.486C596.346 171.004 597.379 169.143 599.65 168.11C602.541 166.662 605.018 164.594 607.083 162.113C607.496 161.699 608.116 161.286 608.735 160.666C608.735 161.286 608.735 161.699 608.735 161.906C608.735 174.106 608.942 186.306 608.942 198.506C608.942 201.401 609.354 201.814 612.245 201.401C612.452 201.401 612.658 201.194 612.865 201.194C613.278 198.919 612.452 149.5 611.832 146.398ZM1448.89 44.8705C1448.89 44.457 1448.89 44.2502 1448.89 44.0434C1448.89 39.9079 1448.89 35.5656 1448.89 31.43C1448.89 28.9487 1449.1 26.4674 1448.89 23.9861C1448.69 22.5386 1449.93 21.298 1448.89 20.4709C1447.65 19.2302 1450.13 19.2302 1448.89 20.6777C1448.69 20.8845 1449.1 21.0912 1448.89 21.298C1447.24 22.7454 1450.34 22.7454 1448.89 21.0912C1447.03 19.0234 1450.13 19.0234 1448.89 21.298V21.5048C1448.07 22.5387 1449.93 22.7454 1448.89 21.7116C1448.48 21.298 1449.31 20.8844 1448.89 20.4709C1448.07 19.6438 1449.51 19.437 1448.89 20.0573C1446.83 21.7115 1449.1 23.7793 1448.89 26.6742C1448.69 29.5691 1448.89 32.4639 1448.89 35.3588C1448.89 38.2537 1448.69 40.9418 1448.89 43.8366C1448.89 44.2502 1448.89 44.8706 1448.89 45.4909C1457.57 44.8706 1440.22 44.8705 1448.89 44.8705ZM1411.31 150.12C1411.31 150.74 1411.11 151.154 1411.11 151.774C1411.11 164.801 1411.11 178.035 1411.11 191.062C1411.11 191.682 1411.31 192.302 1411.31 192.716C1416.48 192.716 1421.23 192.716 1426.39 192.716C1426.39 178.448 1426.39 164.181 1426.18 150.12C1421.02 150.12 1416.27 150.12 1411.31 150.12ZM1448.89 192.716C1448.69 178.448 1449.1 164.181 1448.89 150.12C1443.73 150.12 1438.78 150.12 1433.82 150.12C1433.82 164.388 1433.82 178.448 1433.82 192.716C1438.98 192.716 1443.73 192.716 1448.89 192.716ZM1334.71 192.716C1334.71 178.448 1334.71 164.388 1334.71 150.327C1329.76 150.327 1324.8 149.913 1320.05 150.12C1319.64 153.635 1319.64 191.269 1320.05 192.716C1324.8 192.716 1329.55 192.716 1334.71 192.716ZM1342.56 150.327C1342.14 152.808 1342.14 191.269 1342.56 192.716C1347.51 192.716 1352.26 192.716 1357.22 192.716C1357.63 190.441 1357.42 151.774 1357.01 150.327C1352.26 150.327 1347.31 150.327 1342.56 150.327ZM1403.26 192.716C1403.26 178.448 1403.26 164.388 1403.26 150.12C1398.31 150.12 1393.35 150.12 1388.6 150.12C1388.19 152.808 1388.19 191.062 1388.6 192.509C1393.56 192.716 1398.31 192.716 1403.26 192.716ZM625.46 201.401C626.905 201.401 628.144 201.401 629.383 201.401C629.383 199.54 629.589 197.679 629.589 195.818C630.002 195.818 630.415 195.818 630.622 195.611C631.035 195.611 631.241 195.611 631.654 195.611C632.893 195.404 633.719 194.784 633.925 193.75C634.751 190.028 635.577 186.099 636.197 182.17C636.61 179.275 635.577 176.587 633.306 174.52C632.48 173.692 631.448 173.072 630.415 172.452C629.796 172.038 629.383 171.625 629.383 170.798C629.383 166.662 629.176 162.527 629.176 158.391C629.176 155.91 629.796 153.428 631.241 151.154C634.338 151.154 637.229 151.154 639.913 151.154C641.359 154.049 641.772 156.944 641.772 159.838C641.772 172.452 641.772 185.065 641.772 197.885C641.772 198.299 641.772 198.712 641.772 199.126C641.772 200.367 642.597 201.194 643.836 201.401C645.075 201.607 645.695 200.987 645.901 199.54C646.108 197.885 646.108 196.231 646.108 194.784C646.108 189.408 645.901 184.238 645.901 178.862C646.108 168.73 645.282 158.805 644.869 148.879C644.869 148.466 644.662 148.052 644.662 147.432C644.249 147.432 643.836 147.225 643.423 147.225C641.152 147.018 638.674 147.018 636.403 146.812C634.338 146.812 632.067 146.605 630.002 146.605C627.318 146.811 626.079 147.639 625.666 150.327C625.253 152.808 625.047 155.289 625.047 157.771C625.047 171.625 625.047 185.479 625.253 199.333C625.46 200.16 625.46 200.78 625.46 201.401ZM1296.93 150.327C1296.93 155.083 1296.93 159.838 1296.93 164.594C1296.93 169.35 1296.93 174.106 1296.93 178.655C1296.93 183.411 1296.72 187.96 1297.13 192.716C1302.09 192.716 1306.84 192.716 1311.79 192.716C1311.59 178.448 1311.59 164.388 1311.17 150.327C1306.22 150.327 1301.67 150.327 1296.93 150.327ZM954.998 200.574C954.998 199.746 954.998 198.919 954.998 198.299C954.998 180.723 954.998 162.94 954.998 145.364C954.998 144.33 954.998 143.296 954.792 142.262C954.379 140.195 953.14 138.954 951.281 138.747C950.662 138.54 950.043 138.54 949.217 138.54C947.359 138.54 945.913 139.574 945.5 141.435C945.087 142.883 945.087 144.123 945.087 145.571C945.087 163.147 945.087 180.93 945.087 198.506C945.087 199.126 945.087 199.746 945.294 200.574C948.391 200.574 951.488 200.574 954.998 200.574ZM1365.89 150.327C1365.89 164.388 1365.89 178.448 1365.89 192.509C1368.16 192.923 1378.9 192.716 1380.55 192.096C1380.34 178.242 1380.14 164.388 1379.93 150.327C1375.18 150.327 1370.64 150.327 1365.89 150.327ZM497.65 181.55C496.205 180.516 495.379 179.689 494.346 179.069C492.282 177.828 490.423 176.587 489.391 173.899C488.771 172.038 487.946 171.832 486.087 172.038C483.609 172.245 480.925 172.245 478.448 172.452C475.35 172.659 472.253 172.865 469.363 173.899C467.711 174.52 466.265 175.347 465.44 177.001C463.168 181.343 460.897 185.892 458.626 190.235C458.419 190.441 458.419 190.855 458.213 191.475C468.743 192.302 479.274 193.13 489.804 193.75C490.01 192.923 490.01 192.509 490.217 191.889C490.423 188.58 491.869 186.099 494.759 184.238C495.585 183.825 496.411 182.791 497.65 181.55ZM933.318 201.607C933.318 200.987 933.525 200.78 933.525 200.574C933.525 182.997 933.525 165.628 933.525 148.052C933.525 147.018 933.318 145.778 932.905 144.744C932.079 142.469 930.221 141.022 928.362 141.229C926.091 141.435 924.646 142.676 924.027 144.744C923.614 146.191 923.407 147.639 923.407 149.086C923.407 165.835 923.407 182.791 923.407 199.54C923.407 200.16 923.407 200.78 923.614 201.607C926.711 201.607 930.014 201.607 933.318 201.607ZM900.901 201.401C903.998 201.814 909.367 201.607 910.812 201.194C910.812 200.573 910.812 199.746 910.812 199.126C910.812 194.163 910.812 189.201 910.812 184.445C910.812 174.52 911.018 164.388 911.225 154.462C911.225 153.635 911.431 152.601 911.225 151.774C911.018 150.12 910.606 148.466 910.193 147.018C909.367 145.157 907.095 144.123 904.824 144.33C902.966 144.537 901.727 145.778 901.314 148.259C901.107 149.706 900.901 151.154 900.901 152.395C900.901 168.11 900.901 183.825 900.901 199.333C900.695 199.953 900.695 200.78 900.901 201.401ZM886.035 201.607C886.035 200.987 886.241 200.574 886.241 199.953C886.241 185.479 886.241 171.004 886.241 156.323C886.241 155.289 886.035 154.255 885.828 153.222C885.209 151.154 883.557 150.12 880.873 150.327C878.601 150.327 877.156 151.567 876.537 153.635C876.33 154.876 876.124 156.116 876.124 157.15C876.124 171.418 876.124 185.479 876.124 199.746C876.124 200.367 876.33 200.987 876.33 201.607C879.634 201.607 882.731 201.607 886.035 201.607ZM284.978 177.208C282.087 179.276 278.784 181.137 275.893 183.411C270.731 187.133 270.318 192.716 270.318 198.299C272.383 198.712 299.225 198.712 300.877 198.299C301.083 195.611 300.67 192.716 300.464 190.028C300.051 186.306 297.986 184.031 294.682 182.377C291.379 180.723 288.282 179.069 284.978 177.208ZM753.063 199.333C752.237 192.923 750.998 186.926 747.901 181.55C747.075 180.103 746.043 178.862 744.804 177.621C742.326 175.347 739.436 174.933 736.132 175.76C733.861 176.381 732.002 177.621 730.35 179.069C728.905 180.309 728.079 181.757 727.873 183.618C727.253 188.374 727.666 193.13 728.286 197.885C728.286 198.092 728.492 198.092 728.699 198.299C736.751 198.506 744.597 198.919 753.063 199.333ZM767.516 198.092C775.776 198.506 783.828 198.919 791.881 199.126C791.055 193.13 790.022 187.547 787.132 182.17C786.512 181.136 785.893 180.103 785.067 179.069C781.557 174.726 776.808 173.899 772.059 176.587C771.026 177.208 770.201 177.828 769.375 178.448C767.929 179.689 766.897 181.343 766.691 183.204C766.071 186.513 766.278 190.028 766.484 193.543C766.69 194.99 767.103 196.438 767.516 198.092ZM711.354 195.611C711.354 194.784 711.561 194.163 711.561 193.543C711.354 190.028 710.942 186.306 710.529 182.791C710.322 179.896 708.67 177.828 706.193 176.174C704.954 175.347 703.715 174.726 702.269 174.106C697.521 172.452 692.359 174.106 689.468 178.448C688.435 180.103 687.61 181.757 687.197 183.618C686.371 187.34 685.751 191.062 685.132 194.991C685.132 195.197 685.132 195.404 685.338 195.818C694.01 195.611 702.682 195.611 711.354 195.611ZM860.431 201.607C860.431 200.573 860.638 199.953 860.638 199.126C860.638 186.719 860.844 174.52 860.844 162.113C860.844 161.079 860.844 160.045 860.844 159.011C860.638 157.977 860.431 156.944 860.018 155.91C859.193 154.049 857.541 153.015 855.682 152.808C853.618 152.808 852.379 154.049 851.553 155.91C850.933 157.357 850.727 159.011 850.727 160.666C850.727 173.486 850.727 186.513 850.727 199.333C850.727 199.953 850.727 200.573 850.727 201.401C854.031 201.607 857.128 201.607 860.431 201.607ZM835.86 201.607C835.86 200.78 836.067 199.953 836.067 199.333C836.067 194.577 836.067 189.821 836.067 185.272C836.067 178.242 836.067 171.211 836.067 164.181C836.067 162.526 835.654 160.666 835.241 159.011C834.622 157.15 833.176 155.91 831.112 155.91C829.047 155.91 827.602 157.15 826.982 158.805C826.569 160.045 826.156 161.493 826.156 162.94C826.156 175.14 826.156 187.34 826.156 199.746C826.156 200.367 826.363 200.987 826.363 201.401C829.46 201.607 832.557 201.607 835.86 201.607ZM1038.42 198.506C1038.42 192.096 1038.62 185.892 1038.62 179.689C1038.62 178.862 1038.42 178.242 1037.59 177.828C1035.11 176.587 1032.84 175.14 1030.36 173.899C1029.54 173.486 1028.5 173.279 1027.47 173.072C1027.47 173.693 1027.27 174.106 1027.27 174.726C1027.27 178.655 1027.06 182.791 1027.06 186.719C1026.85 191.062 1029.12 194.577 1030.57 198.506C1033.25 198.506 1035.73 198.506 1038.42 198.506ZM808.193 201.401C808.812 201.607 809.018 201.607 809.225 201.607C809.638 201.607 810.257 201.607 810.67 201.607C812.942 201.401 813.561 200.78 813.561 198.712C813.561 196.851 813.561 194.991 813.561 193.336C813.561 186.926 813.561 180.723 813.561 174.313C813.561 171.418 813.974 168.73 813.767 165.835C813.767 163.767 813.148 161.493 812.735 159.425C812.322 157.977 811.496 156.737 809.844 156.117C809.638 156.323 809.431 156.737 809.225 156.944C808.193 158.598 808.193 160.459 808.193 162.113C808.193 174.52 808.193 186.926 808.193 199.126C808.193 200.16 808.193 200.573 808.193 201.401ZM617.407 201.401C620.711 202.021 620.917 201.814 620.917 198.919C620.917 198.713 620.917 198.713 620.917 198.506C620.917 193.957 620.917 189.201 620.917 184.652C620.917 175.967 621.124 167.489 621.124 158.805C621.124 155.703 620.711 152.601 620.298 149.5C620.298 148.673 620.091 147.845 619.265 147.018C618.027 148.879 617.82 150.74 617.82 152.601C617.614 158.598 617.201 164.594 617.201 170.591C617.201 180.103 617.407 189.614 617.407 199.126C617.407 199.746 617.407 200.573 617.407 201.401ZM1448.89 60.3788C1448.89 56.0365 1452.61 52.5213 1448.89 52.7281C1444.76 52.9349 1448.69 55.8297 1448.89 60.172C1448.89 64.3075 1444.76 67.616 1448.89 67.616C1453.23 67.616 1448.89 64.5143 1448.89 60.3788ZM903.998 130.476C903.998 122.205 904.617 114.348 903.998 106.49C903.792 105.043 903.379 103.595 903.172 102.355C899.868 101.527 899.043 102.561 898.836 105.456V105.663C898.836 113.314 898.836 120.964 898.836 128.615C898.836 129.236 898.836 129.856 899.043 130.476C900.695 130.476 902.14 130.476 903.998 130.476ZM865.387 135.439C865.387 135.025 865.593 134.818 865.593 134.612C865.593 127.374 865.593 119.931 865.593 112.693C865.593 111.246 865.18 109.798 864.974 108.351C864.767 107.524 864.354 107.317 863.529 107.11C861.67 106.904 860.844 107.524 860.431 109.385C860.431 110.005 860.431 110.419 860.431 111.039C860.431 118.483 860.431 125.927 860.431 133.371C860.431 133.991 860.431 134.612 860.638 135.439C862.083 135.439 863.735 135.439 865.387 135.439ZM878.188 133.578C878.188 132.957 878.188 132.544 878.188 132.13C878.395 126.547 878.395 120.758 878.395 115.175C878.395 112.9 878.188 110.832 877.982 108.558C877.775 107.317 877.362 106.283 877.156 105.249C873.646 104.836 873.026 105.456 873.026 108.558V108.765C873.026 116.209 873.026 123.859 873.026 131.303C873.026 131.924 873.026 132.544 873.026 133.371C874.885 133.578 876.537 133.578 878.188 133.578ZM841.848 111.246C838.751 110.419 837.719 111.866 837.719 114.554C837.719 122.205 837.719 129.856 837.719 137.507C837.719 138.127 837.719 138.747 837.925 139.368C839.577 139.368 841.229 139.574 842.674 139.368C842.881 138.954 842.881 138.954 842.881 138.747C842.881 131.303 843.087 123.653 842.881 116.209C842.881 114.554 842.881 112.693 841.848 111.246ZM917.626 128.615C917.626 128.202 917.832 127.788 917.832 127.581C917.832 120.551 917.832 113.314 917.832 106.283C917.832 104.215 917.419 102.355 917.213 100.287C916.387 100.287 915.974 100.287 915.561 100.287C913.909 100.287 913.496 100.7 913.083 102.148C912.877 102.768 912.877 103.595 912.877 104.422C912.877 111.866 912.877 119.31 912.877 126.547C912.877 127.168 912.877 127.788 913.083 128.615C914.322 128.615 915.974 128.615 917.626 128.615ZM853.411 137.507C853.411 137.093 853.618 136.886 853.618 136.679C853.618 129.442 853.824 122.205 853.824 114.968C853.824 113.107 853.617 111.039 852.585 109.385C849.694 108.558 848.662 109.592 848.456 112.693V112.9C848.456 120.551 848.456 128.202 848.456 135.852C848.456 136.473 848.456 137.093 848.662 137.713C849.695 137.713 850.727 137.713 851.553 137.713C852.379 137.507 852.998 137.507 853.411 137.507ZM890.164 104.422C887.067 103.595 886.035 104.836 886.035 107.524V107.731C886.035 115.381 886.035 122.825 886.035 130.476C886.035 131.096 886.034 131.717 886.241 132.544C887.893 132.544 889.545 132.751 891.197 132.337C891.197 125.307 891.403 118.483 891.197 111.453C891.197 109.178 891.197 106.697 890.164 104.422ZM928.362 124.686C928.362 124.273 928.569 124.066 928.569 123.859C928.569 117.036 928.569 110.212 928.569 103.182C928.569 102.148 928.156 101.114 927.95 100.287C927.743 99.2529 926.711 99.2529 925.885 99.2529C925.059 99.2529 924.233 99.4596 924.027 100.493C923.82 101.734 923.407 103.182 923.201 104.422C922.375 111.039 923.201 117.656 923.407 124.273C923.407 124.48 923.614 124.686 923.614 124.893C925.265 124.686 926.711 124.686 928.362 124.686ZM502.606 181.964C497.237 184.445 492.901 187.546 492.488 194.163C493.727 194.37 494.759 194.577 495.998 194.37C498.476 194.37 501.16 194.37 503.638 194.163C506.942 193.75 507.974 191.682 506.735 188.58C505.703 185.892 504.051 184.031 502.606 181.964ZM934.35 98.6326C934.35 106.697 934.35 114.554 934.35 122.619C935.383 122.619 936.209 122.619 937.448 122.619C937.241 114.348 937.861 106.283 937.035 98.0121C936.002 98.4257 935.176 98.4258 934.35 98.6326ZM173.48 136.266C174.306 136.266 174.925 136.059 175.132 135.232C175.338 134.405 174.925 133.785 174.099 133.578C173.48 133.371 172.861 133.164 172.448 133.164C169.35 133.164 166.253 133.164 163.156 133.164C162.537 133.164 162.124 133.371 161.711 133.578C161.091 133.785 160.885 134.405 161.091 135.025C161.298 135.439 161.711 135.852 162.124 136.059C162.743 136.266 163.363 136.059 163.982 136.059C166.047 136.059 167.905 135.852 169.97 136.059C171.002 135.646 172.241 136.059 173.48 136.266ZM174.512 167.903C175.545 166.455 175.545 165.628 173.893 165.008C170.176 163.974 166.46 163.974 162.743 164.801C161.711 165.008 161.091 165.628 161.298 167.076C163.363 167.903 165.634 167.076 167.699 167.282C169.763 167.696 172.035 167.696 174.512 167.903ZM161.091 143.71C162.124 143.71 163.156 143.917 164.188 143.917C165.84 143.917 167.699 143.917 169.35 143.917C170.796 143.917 172.241 144.123 173.48 144.33C174.306 144.33 174.719 144.123 174.925 143.503C174.925 143.089 174.719 142.262 174.306 142.056C173.893 141.642 173.067 141.435 172.448 141.229C170.796 141.022 169.35 140.815 167.699 140.815C166.253 140.815 164.601 140.815 163.156 141.022C162.124 141.229 161.091 141.642 161.091 143.71ZM161.091 178.035C161.504 178.242 161.711 178.242 161.917 178.448C165.84 178.655 169.97 178.862 173.893 178.862C174.306 178.862 174.925 178.448 175.132 178.035C175.338 177.621 174.925 177.001 174.719 176.587C174.306 176.174 173.48 175.76 172.861 175.76C169.97 175.554 166.873 175.553 163.776 175.553C163.363 175.553 162.95 175.76 162.33 175.967C161.504 176.174 161.091 176.794 161.091 178.035ZM161.091 148.466C161.917 148.466 162.743 148.879 163.363 148.672C165.84 148.052 168.525 148.259 171.002 148.672C171.828 148.879 172.861 149.086 173.893 148.879C174.306 148.879 175.132 148.259 175.132 147.845C175.338 147.432 174.925 146.605 174.512 146.398C174.099 145.984 173.273 145.778 172.654 145.778C168.937 145.364 165.221 145.364 161.711 146.398C161.504 146.398 161.504 146.605 161.298 146.812C161.091 147.225 161.091 147.639 161.091 148.466ZM161.091 183.204C162.124 183.204 162.95 183.204 163.776 183.204C165.634 183.204 167.492 182.997 169.35 183.204C170.589 183.204 171.828 183.411 172.861 183.618C174.719 183.825 174.925 183.411 174.512 181.136C169.97 180.309 165.427 180.103 160.885 181.136C161.091 181.757 161.091 182.17 161.091 183.204ZM161.091 137.92C161.298 139.781 161.504 140.195 163.156 139.781C166.46 139.161 169.557 139.368 172.654 139.988C173.067 139.988 173.687 139.988 174.099 139.781C174.512 139.574 175.132 139.161 175.132 138.747C175.132 138.334 174.719 137.713 174.306 137.507C173.893 137.093 173.274 136.886 172.861 136.886C171.415 136.679 169.763 136.473 168.318 136.473C165.84 136.886 163.363 136.679 161.091 137.92ZM161.504 152.808C165.014 151.981 168.525 152.188 171.828 152.808C172.241 152.808 172.861 153.015 173.274 153.015C174.099 153.015 174.925 153.015 175.338 152.188C175.545 151.567 174.925 150.74 173.687 150.327C173.48 150.327 173.274 150.12 172.861 150.12C170.589 149.913 168.318 149.706 166.047 149.706C164.188 149.706 162.537 150.12 161.091 151.361C161.298 151.774 161.298 152.188 161.504 152.808ZM161.091 193.75C162.124 193.75 162.95 194.163 163.569 193.957C166.666 193.13 169.763 193.75 173.067 194.163C174.925 194.37 175.338 193.957 175.132 191.889C170.589 190.648 166.047 190.855 161.504 191.682C161.091 192.509 161.091 192.923 161.091 193.75ZM160.885 161.079C161.917 162.113 162.95 162.113 164.395 162.113C166.253 161.906 167.905 161.906 169.763 162.113C170.796 162.113 172.035 162.32 173.067 162.527C173.893 162.733 174.512 162.733 174.925 161.906C172.448 158.184 163.982 157.771 160.885 161.079ZM161.298 157.357C162.124 157.357 162.743 157.357 163.569 157.357C166.047 157.357 168.525 157.357 171.002 157.357C172.448 157.357 173.687 157.357 175.132 157.15C173.48 154.669 171.209 154.255 168.731 154.049C166.253 153.842 163.776 154.255 161.298 155.289C161.091 156.116 161.091 156.53 161.298 157.357ZM175.132 173.072C174.512 171.211 173.274 170.177 171.622 170.177C168.731 170.177 165.84 170.384 162.743 170.591C161.917 170.591 161.091 171.004 161.091 172.245C165.634 173.279 170.176 173.072 175.132 173.072ZM174.925 188.787C175.132 186.926 174.719 186.306 173.067 186.306C171.622 186.306 170.176 186.306 168.938 186.306C167.079 186.306 165.221 186.306 163.363 186.306C162.33 186.306 161.504 186.513 161.298 187.96C165.634 188.167 170.176 188.374 174.925 188.787ZM161.298 197.472C165.634 199.746 170.176 198.919 174.719 198.506C172.654 195.611 166.253 195.818 161.298 197.472ZM29.7715 125.927C24.6096 125.307 21.0995 125.513 19.4477 126.754C21.0995 127.788 28.9456 128.408 29.978 127.374C29.978 126.961 29.7715 126.547 29.7715 125.927ZM70.6542 137.507C69.6218 137.093 69.2088 136.679 68.5894 136.679C66.1117 136.679 63.4274 136.679 60.9497 136.679C59.9173 136.679 59.5044 137.507 59.9173 138.747C63.4275 138.54 66.9376 139.368 70.6542 137.507ZM29.3586 191.682C26.055 190.441 22.5448 189.821 19.2412 191.682C22.7513 193.543 26.055 193.13 29.3586 191.682ZM55.5812 153.842C54.1359 152.394 53.723 151.981 52.4841 151.981C50.6258 151.981 48.974 151.981 47.1157 151.981C46.4962 151.981 45.6704 152.188 44.8445 152.395C45.051 153.015 45.0509 153.428 45.2574 153.635C48.561 153.842 51.8646 153.842 55.5812 153.842ZM19.4477 163.767C19.4477 163.974 19.4477 164.181 19.4477 164.388C20.2736 164.594 21.0995 164.801 22.1319 165.008C23.9902 165.008 25.642 165.008 27.5003 165.008C28.9457 165.008 29.1521 164.801 29.7715 162.94C26.2614 162.94 22.7513 162.113 19.4477 163.767ZM44.6379 174.726C47.7351 176.381 53.5165 176.381 55.3748 174.52C51.8646 173.279 48.561 173.072 44.6379 174.726ZM29.5651 136.679C24.4031 136.059 20.893 136.266 19.4477 137.713C22.7513 139.161 26.0549 138.954 29.5651 138.127C29.3586 137.713 29.5651 137.3 29.5651 136.679ZM19.2412 142.676C22.7513 143.917 26.0549 143.71 29.5651 142.676C27.0873 140.608 21.7189 140.608 19.2412 142.676ZM70.4477 164.594C69.4153 163.354 68.5894 162.94 67.557 162.94C65.6987 162.94 63.8404 162.94 61.9821 162.94C61.3627 162.94 60.7432 163.147 59.9173 163.354C60.1238 163.974 60.3303 164.388 60.3303 165.008C63.634 164.801 66.7311 164.801 70.4477 164.594ZM45.2574 164.181C48.561 165.421 51.8646 165.421 55.5812 164.181C52.897 162.32 47.9416 162.32 45.2574 164.181ZM45.0509 137.3C48.1481 139.367 53.5165 139.161 55.3748 137.093C51.8646 136.059 48.561 136.266 45.0509 137.3ZM70.0347 175.347C70.0347 175.14 70.0347 175.14 70.2412 174.933C69.6218 174.52 69.2088 173.899 68.5894 173.899C65.6987 173.692 63.0145 173.486 60.1238 174.106L59.9173 174.313C59.9173 175.347 60.5367 175.553 61.5691 175.553C63.6339 175.553 65.9052 175.347 67.9699 175.347C68.5894 175.553 69.2088 175.347 70.0347 175.347ZM19.6542 152.808C19.6542 153.015 19.6542 153.222 19.6542 153.428C22.9578 153.635 26.055 153.842 29.3586 154.255C29.5651 153.635 29.565 153.222 29.7715 152.395C26.2614 152.188 22.9578 151.154 19.6542 152.808ZM19.4477 174.52C19.4477 174.726 19.4477 174.726 19.6542 174.933C22.9578 175.14 26.055 175.347 29.3586 175.76C29.5651 175.14 29.565 174.726 29.7715 174.313C28.3262 173.899 22.1319 173.486 20.893 173.899C20.4801 173.899 19.8606 174.313 19.4477 174.52ZM60.3303 153.428C63.8405 154.669 68.1764 154.462 70.2412 153.222C68.5894 151.567 64.4599 151.567 60.3303 153.428ZM471.84 150.12C472.047 150.533 472.047 151.154 472.253 151.567C472.666 152.188 473.079 153.428 473.492 153.428C474.318 153.428 475.144 152.808 475.97 152.395C476.383 152.188 476.383 151.361 476.589 150.947C474.938 149.706 473.492 149.5 471.84 150.12ZM1448.89 141.435C1450.75 141.022 1448.48 140.815 1448.89 139.161C1447.86 139.988 1449.72 140.608 1448.89 141.435ZM1448.89 134.405C1447.65 134.612 1449.51 135.232 1448.89 136.473C1450.34 136.059 1448.69 135.646 1448.89 134.405Z" fill="white" fill-opacity="0.03"/>
<path d="M1237.25 127.995C1236.43 126.134 1234.78 124.686 1233.33 123.239C1231.47 121.171 1229.82 118.69 1228.38 116.209C1227.34 114.554 1228.38 112.9 1228.99 111.039C1324.18 110.626 1353.71 110.212 1448.89 109.798C1449.31 112.487 1450.75 114.968 1448.89 117.036C1448.27 117.863 1449.51 118.69 1448.89 119.724C1448.27 120.964 1449.93 122.205 1448.89 123.032C1448.07 123.653 1449.51 124.893 1448.89 125.72C1448.27 126.547 1449.93 126.961 1448.89 126.961C1451.78 126.961 1446 126.961 1448.89 126.961C1414.62 127.168 1427.83 127.168 1393.56 127.375C1358.46 127.581 1323.35 127.581 1288.25 127.788C1272.15 127.788 1256.04 127.995 1239.94 127.995C1238.91 127.995 1238.08 127.995 1237.25 127.995Z" fill="white" fill-opacity="0.03"/>
<path d="M1315.92 107.11C1317.57 105.87 1319.23 104.629 1321.08 103.595C1326.66 100.287 1332.85 98.219 1339.05 96.358C1349.16 93.4631 1359.49 91.3954 1370.23 91.1886C1380.96 90.9818 1391.49 92.4293 1401.61 95.1174C1409.46 97.3919 1416.89 100.494 1424.12 104.216C1425.36 104.836 1426.59 105.663 1427.83 106.697C1425.97 107.317 1317.99 107.938 1315.92 107.11Z" fill="white" fill-opacity="0.03"/>
<path d="M1448.89 108.351C1449.51 107.317 1447.24 106.49 1448.89 106.283C1447.86 107.524 1450.13 108.144 1448.89 108.351Z" fill="white" fill-opacity="0.03"/>
<path d="M1448.89 106.49C1448.27 107.524 1450.55 108.351 1448.89 108.558C1449.93 107.317 1447.86 106.697 1448.89 106.49Z" fill="white" fill-opacity="0.03"/>
<path d="M1448.89 111.453C1448.27 112.693 1449.93 113.107 1448.89 113.52C1449.51 112.28 1447.86 111.659 1448.89 111.453Z" fill="white" fill-opacity="0.03"/>
<path d="M1448.89 111.659C1448.07 112.28 1449.72 112.9 1448.89 113.52C1448.89 113.314 1448.89 113.314 1448.89 113.107C1449.51 112.073 1447.86 111.659 1448.89 111.039C1448.89 111.453 1448.89 111.659 1448.89 111.659Z" fill="white" fill-opacity="0.03"/>
<path d="M1448.89 121.791C1448.07 122.412 1449.72 123.032 1448.89 123.653C1449.1 121.998 1447.45 121.585 1448.89 121.791Z" fill="white" fill-opacity="0.03"/>
<path d="M1448.89 103.595C1449.72 102.354 1447.24 101.734 1448.89 101.321C1447.86 102.561 1450.55 103.388 1448.89 103.595Z" fill="white" fill-opacity="0.03"/>
<path d="M1448.89 118.069C1449.72 117.449 1448.07 116.829 1448.89 116.209C1448.89 116.415 1448.89 116.415 1448.89 116.622C1448.27 117.449 1450.34 118.069 1448.89 118.069Z" fill="white" fill-opacity="0.03"/>
<path d="M1448.89 96.5648C1448.27 97.5987 1450.55 98.4258 1448.89 98.6326C1449.72 97.3919 1447.65 96.7716 1448.89 96.5648Z" fill="white" fill-opacity="0.03"/>
<path d="M1448.89 101.527C1448.07 102.561 1450.34 103.388 1448.89 103.595C1449.51 102.354 1447.24 101.734 1448.89 101.527Z" fill="white" fill-opacity="0.03"/>
<path d="M1448.89 116.002C1448.69 114.348 1448.07 114.554 1448.89 114.141C1448.89 114.348 1448.89 114.348 1448.89 114.554C1448.27 114.968 1449.51 115.588 1448.89 116.002Z" fill="white" fill-opacity="0.03"/>
<path d="M1448.89 105.663C1449.51 104.422 1447.65 104.215 1448.89 104.422C1448.48 105.663 1450.13 105.456 1448.89 105.663Z" fill="white" fill-opacity="0.03"/>
<path d="M1448.89 119.931C1449.51 119.517 1448.07 119.31 1448.89 118.897C1448.69 120.137 1450.55 120.137 1448.89 120.344C1448.89 120.137 1448.89 120.137 1448.89 119.931Z" fill="white" fill-opacity="0.03"/>
<path d="M1448.89 104.836C1448.27 105.043 1449.72 105.249 1448.89 105.663C1449.31 104.422 1448.27 104.215 1448.89 104.215C1448.89 104.629 1448.89 104.836 1448.89 104.836Z" fill="white" fill-opacity="0.03"/>
<path d="M1448.89 109.798C1448.27 110.005 1449.51 110.419 1448.89 110.832C1449.31 109.592 1447.65 109.592 1448.89 109.385C1449.1 109.592 1448.89 109.592 1448.89 109.798Z" fill="white" fill-opacity="0.03"/>
<path d="M1448.89 107.11C1449.31 106.904 1448.27 106.49 1448.89 106.283C1448.89 107.731 1449.51 107.317 1448.89 107.11Z" fill="white" fill-opacity="0.03"/>
<path d="M1448.89 115.381C1449.1 114.348 1448.27 114.554 1448.89 114.141C1448.69 115.382 1450.55 115.381 1448.89 115.381Z" fill="white" fill-opacity="0.03"/>
<path d="M1448.89 111.246C1449.1 109.592 1448.27 109.592 1448.89 109.178C1448.89 109.385 1448.89 109.385 1448.89 109.592C1448.48 110.005 1449.93 110.419 1448.89 111.246Z" fill="white" fill-opacity="0.03"/>
<path d="M1448.89 100.08C1448.27 100.287 1449.51 100.494 1448.89 100.7C1448.89 100.494 1448.89 100.287 1448.89 100.08C1449.51 99.8731 1448.48 99.6664 1448.89 99.2529C1449.1 99.6664 1448.69 99.8731 1448.89 100.08Z" fill="white" fill-opacity="0.03"/>
</svg>
