<svg width="59" height="82" viewBox="0 0 59 82" fill="none" xmlns="http://www.w3.org/2000/svg">
<path fill-rule="evenodd" clip-rule="evenodd" d="M78.0924 23.2224L49.1164 7.96271C48.4619 7.61212 47.7296 7.42847 46.9855 7.42847C46.2415 7.42847 45.5091 7.61212 44.8547 7.96271L15.8786 23.2224C14.9697 23.6999 14.2477 24.4635 13.8267 25.3929C13.4057 26.3224 13.3098 27.3645 13.5543 28.354C13.7987 29.3435 14.3696 30.2239 15.1764 30.856C15.9832 31.4882 16.9799 31.8359 18.0087 31.8441H75.9608C76.9898 31.8362 77.9867 31.4888 78.7937 30.8568C79.6008 30.2248 80.1718 29.3443 80.4165 28.3547C80.6611 27.3652 80.5655 26.3229 80.1445 25.3933C79.7236 24.4637 79.0014 23.6999 78.0924 23.2224ZM18.0056 27.2661L46.9817 12.0064L75.9577 27.2661H18.0056ZM75.9577 69.9934H18.0056C17.3924 69.9934 16.8044 70.2347 16.3708 70.664C15.9372 71.0933 15.6937 71.6753 15.6937 72.2824C15.6937 72.8894 15.9372 73.4715 16.3708 73.9007C16.8044 74.33 17.3924 74.5713 18.0056 74.5713H75.9577C76.5709 74.5717 77.1591 74.3308 77.593 73.9019C78.0269 73.4729 78.2709 72.8909 78.2713 72.2839C78.2717 71.6768 78.0284 71.0943 77.5952 70.6648C77.1619 70.2352 76.574 69.9938 75.9608 69.9934H75.9577ZM75.9577 39.4739C76.5709 39.4739 77.159 39.2326 77.5925 38.8033C78.0261 38.3741 78.2697 37.792 78.2697 37.185C78.2697 36.5779 78.0261 35.9959 77.5925 35.5666C77.159 35.1373 76.5709 34.896 75.9577 34.896H18.0056C17.3924 34.896 16.8044 35.1373 16.3708 35.5666C15.9372 35.9959 15.6937 36.5779 15.6937 37.185C15.6937 37.792 15.9372 38.3741 16.3708 38.8033C16.8044 39.2326 17.3924 39.4739 18.0056 39.4739H20.9186V62.3635H18.0056C17.3924 62.3635 16.8044 62.6049 16.3708 63.0341C15.9372 63.4634 15.6937 64.0454 15.6937 64.6525C15.6937 65.2596 15.9372 65.8416 16.3708 66.2709C16.8044 66.7001 17.3924 66.9415 18.0056 66.9415H75.9577C76.5709 66.9415 77.159 66.7001 77.5925 66.2709C78.0261 65.8416 78.2697 65.2596 78.2697 64.6525C78.2697 64.0454 78.0261 63.4634 77.5925 63.0341C77.159 62.6049 76.5709 62.3635 75.9577 62.3635H71.7624V39.4739H75.9577ZM40.8798 39.4739H44.0116V62.3635H40.8828V39.4739H40.8798ZM36.3052 62.3635H33.2226V39.4739H36.3052V62.3635ZM48.6355 39.4739H51.6903V62.3635H48.6355V39.4739ZM56.3419 39.4739H59.4244V62.3635H56.3419V39.4739ZM25.5162 39.4739H28.6126V62.3635H25.5162V39.4739ZM67.1308 62.3635H64.0483V39.4739H67.1308V62.3635Z" fill="#EFF0F2"/>
</svg>
