<svg width="50" height="50" viewBox="0 0 50 50" fill="none" xmlns="http://www.w3.org/2000/svg">/n<g clip-path="url(#clip0_1134_476)">/n<path d="M5.91229 17.783C14.7612 17.783 23.5121 17.783 32.3023 17.783C32.3023 28.5155 32.3023 39.2284 32.3023 50C30.3837 50 28.4652 50 26.4683 50C26.4683 47.1014 26.4683 44.2029 26.4683 41.2652C21.574 41.2652 16.7189 41.2652 11.8246 41.2652C11.8246 44.1637 11.8246 47.0623 11.8246 50C7.85043 50 3.935 50 0 50C0 49.0403 0 48.1003 0 47.1014C1.95771 47.1014 3.91543 47.1014 5.91229 47.1014C5.91229 37.3286 5.91229 27.5754 5.91229 17.783ZM26.4487 26.5962C21.5544 26.5962 16.6993 26.5962 11.8442 26.5962C11.8442 27.5754 11.8442 28.5351 11.8442 29.4751C16.7385 29.4751 21.574 29.4751 26.4487 29.4751C26.4487 28.4959 26.4487 27.5754 26.4487 26.5962ZM11.8246 35.331C16.7189 35.331 21.574 35.331 26.4487 35.331C26.4487 34.3517 26.4487 33.4117 26.4487 32.452C21.574 32.452 16.7189 32.452 11.8246 32.452C11.8246 33.4117 11.8246 34.3517 11.8246 35.331Z" fill="#D0D6E1"></path>/n<path d="M35.278 14.8257C29.3657 14.8257 23.5317 14.8257 17.6977 14.8257C17.6977 9.87074 17.6977 4.95495 17.6977 0C26.4487 0 35.2192 0 44.0485 0C44.0485 15.6678 44.0485 31.3553 44.0485 47.0819C46.065 47.0819 48.0227 47.0819 50 47.0819C50 48.0807 50 49.0208 50 50C45.1253 50 40.231 50 35.278 50C35.278 38.3079 35.278 26.5962 35.278 14.8257ZM23.5513 5.99295C28.4455 5.99295 33.3007 5.99295 38.1754 5.99295C38.1754 5.01371 38.1754 4.07364 38.1754 3.11398C33.3007 3.11398 28.4455 3.11398 23.5513 3.11398C23.5513 4.07364 23.5513 5.01371 23.5513 5.99295ZM23.5513 11.8488C28.4455 11.8488 33.3007 11.8488 38.1558 11.8488C38.1558 10.8696 38.1558 9.90991 38.1558 8.96984C33.2615 8.96984 28.426 8.96984 23.5513 8.96984C23.5513 9.94908 23.5513 10.8892 23.5513 11.8488ZM41.0924 20.6816C41.0924 19.6827 41.0924 18.7427 41.0924 17.8026C40.1135 17.8026 39.1738 17.8026 38.2341 17.8026C38.2341 18.7818 38.2341 19.7219 38.2341 20.6816C39.1934 20.6816 40.1331 20.6816 41.0924 20.6816ZM38.2145 26.5178C39.1738 26.5178 40.1331 26.5178 41.0924 26.5178C41.0924 25.5582 41.0924 24.5985 41.0924 23.6584C40.1135 23.6584 39.1542 23.6584 38.2145 23.6584C38.2145 24.6181 38.2145 25.5582 38.2145 26.5178ZM38.2145 32.3933C39.213 32.3933 40.1527 32.3933 41.0924 32.3933C41.0924 31.414 41.0924 30.474 41.0924 29.5339C40.1135 29.5339 39.1738 29.5339 38.2145 29.5339C38.2145 30.5131 38.2145 31.4336 38.2145 32.3933ZM38.2341 35.3702C38.2341 36.3298 38.2341 37.2895 38.2341 38.2491C39.1934 38.2491 40.1527 38.2491 41.0924 38.2491C41.0924 37.2699 41.0924 36.3102 41.0924 35.3702C40.1331 35.3702 39.213 35.3702 38.2341 35.3702ZM38.2145 41.2456C38.2145 42.2444 38.2145 43.1845 38.2145 44.1246C39.1934 44.1246 40.1331 44.1246 41.0924 44.1246C41.0924 43.1453 41.0924 42.2052 41.0924 41.2456C40.1135 41.2456 39.1934 41.2456 38.2145 41.2456Z" fill="#D0D6E1"></path>/n<path d="M14.7609 44.1833C15.7202 44.1833 16.6599 44.1833 17.6388 44.1833C17.6388 46.1026 17.6388 48.0415 17.6388 50C16.6991 50 15.7398 50 14.7609 50C14.7609 48.0611 14.7609 46.1418 14.7609 44.1833Z" fill="#D0D6E1"></path>/n<path d="M23.512 44.2029C23.512 46.1614 23.512 48.0611 23.512 50.0196C22.5527 50.0196 21.613 50.0196 20.6341 50.0196C20.6341 48.1003 20.6341 46.181 20.6341 44.2029C21.5738 44.2029 22.5135 44.2029 23.512 44.2029Z" fill="#D0D6E1"></path>/n</g>/n<defs>/n<clipPath id="clip0_1134_476">/n<rect width="50" height="50" fill="gray"></rect>/n</clipPath>/n</defs>/n</svg>