<svg width="50" height="50" viewBox="0 0 50 50" fill="none" xmlns="http://www.w3.org/2000/svg">/n<path d="M1.67084 16.7887C5.55554 16.7887 9.41935 16.7887 13.3041 16.7887C13.3041 19.5658 13.3041 22.3219 13.3041 25.141C13.5338 25.0358 13.68 24.9727 13.8262 24.9096C17.3976 23.1213 20.969 21.312 24.5404 19.5027C24.8746 19.3344 25.1252 19.3344 25.4594 19.5027C28.989 21.291 32.5396 23.0792 36.0692 24.8675C36.2363 24.9517 36.4034 25.0358 36.654 25.141C36.654 22.3429 36.654 19.5868 36.654 16.8098C40.5805 16.8098 44.4443 16.8098 48.329 16.8098C48.329 26.8662 48.329 39.9226 48.329 50C44.4652 50 40.6223 50 36.7167 50C36.7167 44.4458 36.7167 35.8706 36.7167 30.2534C28.9055 30.2534 21.157 30.2534 13.3458 30.2534C13.3458 35.8286 13.3458 44.3827 13.3458 49.979C9.44024 49.979 5.57642 49.979 1.67084 49.979C1.67084 39.9436 1.67084 26.8872 1.67084 16.7887ZM9.962S38 28.5072C9.96238 27.0555 9.98326 25.688 9.96238 24.2995C9.94149 22.8899 8.83456 21.7959 7.45612 21.8169C6.09856 21.8169 4.99163 22.9109 4.97075 24.3205C4.94986 25.4987 4.97075 26.6558 4.97075 27.8339C4.97075 28.0443 4.97075 28.2757 4.97075 28.5072C6.66247 28.5072 8.29154 28.5072 9.96238 28.5072ZM45.0082 28.5282C45.0082 27.1186 45.0082 25.7722 45.0082 24.4047C44.9873 22.932 43.9013 21.8169 42.4811 21.8169C41.1026 21.8169 40.0166 22.932 39.9957 24.3836C39.9957 25.6249 39.9957 26.8662 39.9957 28.1074C39.9957 28.2337 40.0166 28.3809 40.0375 28.5072C41.7083 28.5282 43.3165 28.5282 45.0082 28.5282ZM9.96238 41.1092C9.96238 39.6365 9.98326 38.2059 9.96238 36.7963C9.9206 35.4499 8.79279 34.3979 7.477 34.419C6.14033 34.419 5.01252 35.513 4.99163 36.8805C4.97075 37.9745 4.99163 39.0895 4.99163 40.1835C4.99163 40.4991 4.99163 40.7936 4.99163 41.1303C6.66247 41.1092 8.29154 41.1092 9.96238 41.1092ZM45.0082 41.1303C45.0082 39.7207 45.0082 38.3532 45.0082 36.9857C44.9873 35.534 43.9222 34.419 42.5228 34.419C41.1235 34.419 40.0166 35.534 39.9957 37.0067C39.9957 38.248 39.9957 39.4893 39.9957 40.7305C39.9957 40.8568 40.0166 41.004 40.0375 41.1303C41.7083 41.1303 43.3165 41.1303 45.0082 41.1303ZM24.9164 28.5282C26.7961 28.5492 28.2998 27.0555 28.3416 25.162C28.3625 23.2896 26.8587 21.7328 25.0208 21.6907C23.162 21.6697 21.5956 23.1634 21.5747 25.0358C21.512 26.9503 23.0158 28.5072 24.9164 28.5282Z" fill="#D0D6E1"></path>/n<path d="M15.0164 5.00716C21.6788 5.00716 28.2995 5.00716 34.962 5.00716C34.962 10.7927 34.962 16.5783 34.962 22.406C34.774 22.3218 34.6069 22.2377 34.4398 22.1746C31.4532 20.6808 28.4875 19.1871 25.5009 17.6723C25.104 17.483 24.8325 17.483 24.4566 17.6934C21.4909 19.2081 18.5042 20.7019 15.5176 22.1956C15.3714 22.2798 15.2043 22.3429 15.0164 22.427C15.0164 16.5994 15.0164 10.8138 15.0164 5.00716ZM27.4432 14.222C27.4641 14.1589 27.485 14.0958 27.485 14.0537C27.485 12.7072 27.5059 11.3608 27.485 10.0143C27.4641 8.60474 26.3363 7.53178 24.9787 7.53178C23.6212 7.53178 22.5142 8.64682 22.4934 10.0564C22.4725 11.3608 22.4934 12.6441 22.4934 13.9485C22.4934 14.0537 22.5142 14.1379 22.5351 14.2431C24.1851 14.222 25.8141 14.222 27.4432 14.222Z" fill="#D0D6E1"></path>/n<path d="M29.5944 50C28.2995 50 27.0882 50 25.835 50C25.835 45.8133 25.835 38.6688 25.835 34.4611C25.2711 34.4611 24.749 34.4611 24.1642 34.4611C24.1642 38.6267 24.1642 45.7923 24.1642 50C22.8902 50 21.6788 50 20.4257 50C20.4257 45.8344 20.4257 38.6688 20.4257 34.4611C19.8409 34.4611 19.3188 34.4611 18.7549 34.4611C18.7549 38.6267 18.7549 45.7923 18.7549 50C17.5017 50 16.2695 50 15.0164 50C15.0164 44.9928 15.0164 36.9857 15.0164 31.9364C21.6579 31.9364 28.2786 31.9364 34.962 31.9364C34.962 36.9436 34.962 44.9508 34.962 50C33.7506 50 32.5393 50 31.2653 50C31.2653 45.8344 31.2653 38.6688 31.2653 34.4611C30.7013 34.4611 30.1792 34.4611 29.6153 34.4611C29.5944 38.6056 29.5944 45.7923 29.5944 50Z" fill="#D0D6E1"></path>/n<path d="M38.3249 0C38.3249 1.11504 38.3249 2.188 38.3249 3.30304C29.4485 3.30304 20.5931 3.30304 11.6959 3.30304C11.6959 2.23008 11.6959 1.13608 11.6959 0C20.5513 0 29.4068 0 38.3249 0Z" fill="#D0D6E1"></path>/n<path d="M13.2832 15.0636C8.85544 15.0636 4.44861 15.0636 0 15.0636C0 13.9696 0 12.8756 0 11.7605C4.42772 11.7605 8.83456 11.7605 13.2832 11.7605C13.2832 12.8545 13.2832 13.9275 13.2832 15.0636Z" fill="#D0D6E1"></path>/n<path d="M50 11.7605C50 12.8756 50 13.9485 50 15.0636C45.5723 15.0636 41.1654 15.0636 36.7168 15.0636C36.7168 13.9906 36.7168 12.8966 36.7168 11.7605C41.1237 11.7605 45.5305 11.7605 50 11.7605Z" fill="#D0D6E1"></path>/n<path d="M24.9371 26.8451C24.0181 26.8241 23.2871 26.0246 23.308 25.0989C23.3498 24.1943 24.1017 23.4579 25.0206 23.5C25.9396 23.521 26.6915 24.3205 26.6497 25.2462C26.6288 26.1508 25.856 26.8662 24.9371 26.8451Z" fill="#D0D6E1"></path>/n</svg>